<?xml version="1.0" encoding="UTF-8" standalone="no"?>
<svg width="136px" height="74px" viewBox="0 0 136 74" version="1.1" xmlns="http://www.w3.org/2000/svg" xmlns:xlink="http://www.w3.org/1999/xlink" xmlns:sketch="http://www.bohemiancoding.com/sketch/ns">
    <!-- Generator: Sketch 3.3.3 (12081) - http://www.bohemiancoding.com/sketch -->
    <title>Imported Layers</title>
    <desc>Created with Sketch.</desc>
    <defs></defs>
    <g id="Welcome" stroke="none" stroke-width="1" fill="none" fill-rule="evenodd" sketch:type="MSPage">
        <g id="Desktop-Final" sketch:type="MSArtboardGroup" transform="translate(-191.000000, -104.000000)">
            <g id="Imported-Layers" sketch:type="MSLayerGroup" transform="translate(191.228841, 105.529422)">
                <path d="M117.804578,35.7675407 L66.6001595,71.0101864 L16.6389653,35.3180052 L66.2940893,0.0680761155 L117.804578,35.7675407 L117.804578,35.7675407 Z" id="Stroke-1" stroke="#FFFFFF" stroke-width="2.364672" sketch:type="MSShapeGroup"></path>
                <path d="M0.0950070872,35.4806693 L17.1145748,35.4806693 M16.3532743,23.9345328 L33.373129,23.9345328 M16.3532743,47.05021 L33.373129,47.05021 M134.916187,35.8678583 L117.896715,35.8678583 M118.265358,24.3216247 L101.245503,24.3216247 M118.265358,47.437399 L101.245503,47.437399" id="Stroke-2" stroke="#FFFFFF" stroke-width="2.079456" sketch:type="MSShapeGroup"></path>
                <path d="M37.2002977,37.8600315 C36.8088838,38.1352493 36.3548972,38.2727612 35.8385294,38.2727612 C35.1924238,38.2727612 34.7013147,38.0478478 34.3653933,37.5978268 C34.029472,37.1479029 33.8614635,36.4968583 33.8614635,35.6449843 C33.8614635,34.8217585 34.0241141,34.1774147 34.3496067,33.7119528 C34.6749079,33.2463937 35.1711836,33.0136142 35.8384337,33.0136142 C36.0791566,33.0136142 36.3172006,33.0447874 36.5530439,33.1069396 C36.788696,33.1693832 36.9785188,33.2517349 37.122321,33.3544803 L36.9312544,33.8176115 C36.5989688,33.6262992 36.2347271,33.5304488 35.8384337,33.5304488 C35.3787066,33.5304488 35.0368533,33.700105 34.8127782,34.0384462 C34.5887987,34.3769816 34.4769525,34.9128504 34.4769525,35.6449843 C34.4769525,37.0523438 34.9307477,37.7556352 35.8384337,37.7556352 C36.2228632,37.7556352 36.6165734,37.6361864 37.0198512,37.3969003 L37.2002977,37.8600315 L37.2002977,37.8600315 Z" id="Fill-3" fill="#FFFFFF" sketch:type="MSShapeGroup"></path>
                <path d="M37.2002977,37.8600315 C36.8088838,38.1352493 36.3548972,38.2727612 35.8385294,38.2727612 C35.1924238,38.2727612 34.7013147,38.0478478 34.3653933,37.5978268 C34.029472,37.1479029 33.8614635,36.4968583 33.8614635,35.6449843 C33.8614635,34.8217585 34.0241141,34.1774147 34.3496067,33.7119528 C34.6749079,33.2463937 35.1711836,33.0136142 35.8384337,33.0136142 C36.0791566,33.0136142 36.3172006,33.0447874 36.5530439,33.1069396 C36.788696,33.1693832 36.9785188,33.2517349 37.122321,33.3544803 L36.9312544,33.8176115 C36.5989688,33.6262992 36.2347271,33.5304488 35.8384337,33.5304488 C35.3787066,33.5304488 35.0368533,33.700105 34.8127782,34.0384462 C34.5887987,34.3769816 34.4769525,34.9128504 34.4769525,35.6449843 C34.4769525,37.0523438 34.9307477,37.7556352 35.8384337,37.7556352 C36.2228632,37.7556352 36.6165734,37.6361864 37.0198512,37.3969003 L37.2002977,37.8600315 L37.2002977,37.8600315 Z" id="Stroke-4" stroke="#FFFFFF" stroke-width="0.5" sketch:type="MSShapeGroup"></path>
                <path d="M42.8149965,38.1758425 L42.2351949,38.1758425 L42.2351949,35.662853 L40.5268852,35.6630472 L40.5268852,38.1758425 L39.9467966,38.1758425 L39.9468923,33.1104357 L40.5268852,33.1104357 L40.5268852,35.1461155 L42.2351949,35.1461155 L42.2351949,33.1104357 L42.8149965,33.1104357 L42.8149965,38.1758425 L42.8149965,38.1758425 Z" id="Fill-5" fill="#FFFFFF" sketch:type="MSShapeGroup"></path>
                <path d="M42.8149965,38.1758425 L42.2351949,38.1758425 L42.2351949,35.662853 L40.5268852,35.6630472 L40.5268852,38.1758425 L39.9467966,38.1758425 L39.9468923,33.1104357 L40.5268852,33.1104357 L40.5268852,35.1461155 L42.2351949,35.1461155 L42.2351949,33.1104357 L42.8149965,33.1104357 L42.8149965,38.1758425 L42.8149965,38.1758425 Z" id="Stroke-6" stroke="#FFFFFF" stroke-width="0.5" sketch:type="MSShapeGroup"></path>
                <path d="M49.1553083,38.1758425 L48.4301736,38.1758425 L46.9658398,35.8746562 L46.3221262,35.8746562 L46.3222218,38.1758425 L45.7421332,38.1758425 L45.7421332,33.1104357 L47.1535578,33.1104357 C47.6273494,33.1104357 48.0014458,33.2271654 48.2763253,33.4604304 C48.5509178,33.6937927 48.6883097,34.0189265 48.6885011,34.4353465 C48.6885011,34.7440682 48.5881361,35.0186063 48.3876931,35.2589606 C48.1874415,35.4997034 47.9115096,35.662853 47.5600886,35.7492835 L49.1553083,38.1758425 L49.1553083,38.1758425 Z M46.3222218,35.3614147 L47.0544366,35.3614147 C47.3610808,35.3614147 47.6097449,35.2770236 47.8006201,35.1084357 C47.9916867,34.9395564 48.0871722,34.7273648 48.0871722,34.4708898 C48.0871722,33.9062756 47.7476152,33.6237743 47.0684054,33.6237743 L46.3222218,33.6237743 L46.3222218,35.3614147 L46.3222218,35.3614147 Z" id="Fill-7" fill="#FFFFFF" sketch:type="MSShapeGroup"></path>
                <path d="M49.1553083,38.1758425 L48.4301736,38.1758425 L46.9658398,35.8746562 L46.3221262,35.8746562 L46.3222218,38.1758425 L45.7421332,38.1758425 L45.7421332,33.1104357 L47.1535578,33.1104357 C47.6273494,33.1104357 48.0014458,33.2271654 48.2763253,33.4604304 C48.5509178,33.6937927 48.6883097,34.0189265 48.6885011,34.4353465 C48.6885011,34.7440682 48.5881361,35.0186063 48.3876931,35.2589606 C48.1874415,35.4997034 47.9115096,35.662853 47.5600886,35.7492835 L49.1553083,38.1758425 L49.1553083,38.1758425 Z M46.3222218,35.3614147 L47.0544366,35.3614147 C47.3610808,35.3614147 47.6097449,35.2770236 47.8006201,35.1084357 C47.9916867,34.9395564 48.0871722,34.7273648 48.0871722,34.4708898 C48.0871722,33.9062756 47.7476152,33.6237743 47.0684054,33.6237743 L46.3222218,33.6237743 L46.3222218,35.3614147 L46.3222218,35.3614147 Z" id="Stroke-8" stroke="#FFFFFF" stroke-width="0.5" sketch:type="MSShapeGroup"></path>
                <path d="M54.0805599,38.1758425 L51.8136889,38.1758425 L51.8136889,37.6625039 L52.6729624,37.6625039 L52.6729624,33.6237743 L51.8134018,33.6237743 L51.8136889,33.1104357 L54.0805599,33.1104357 L54.0805599,33.6237743 L53.2531467,33.6237743 L53.2531467,37.6625039 L54.0805599,37.6625039 L54.0805599,38.1758425 L54.0805599,38.1758425 Z" id="Fill-9" fill="#FFFFFF" sketch:type="MSShapeGroup"></path>
                <path d="M54.0805599,38.1758425 L51.8136889,38.1758425 L51.8136889,37.6625039 L52.6729624,37.6625039 L52.6729624,33.6237743 L51.8134018,33.6237743 L51.8136889,33.1104357 L54.0805599,33.1104357 L54.0805599,33.6237743 L53.2531467,33.6237743 L53.2531467,37.6625039 L54.0805599,37.6625039 L54.0805599,38.1758425 L54.0805599,38.1758425 Z" id="Stroke-10" stroke="#FFFFFF" stroke-width="0.5" sketch:type="MSShapeGroup"></path>
                <path d="M59.830163,33.6705827 C59.5327994,33.567643 59.2512225,33.5162703 58.9845712,33.5162703 C58.6828065,33.5162703 58.4370128,33.5862887 58.2470943,33.7261312 C58.0573671,33.8662651 57.9624557,34.0653465 57.9622644,34.3238609 C57.9624557,34.630252 58.2113111,34.8995459 58.7089263,35.1317428 C59.076708,35.3039239 59.3200142,35.423664 59.4390361,35.490769 C59.5581538,35.5576798 59.6790893,35.6497428 59.801747,35.7670551 C59.9241176,35.8845617 60.0226648,36.0225591 60.0970057,36.181727 C60.1713466,36.3407008 60.2083735,36.5199711 60.2083735,36.7184698 C60.2083735,37.2114147 60.0452445,37.593748 59.7186038,37.8652756 C59.3919631,38.1370945 59.0069596,38.2727612 58.5637845,38.2727612 C58.134674,38.2727612 57.7585684,38.1867192 57.4356591,38.0142467 L57.5558292,37.5080945 C57.9352835,37.6828976 58.266708,37.7702992 58.5497201,37.770105 C58.8797094,37.7702992 59.1443515,37.6834803 59.343742,37.5098425 C59.5428455,37.3364961 59.6423494,37.0976955 59.6423494,36.7936352 C59.6423494,36.5687218 59.5778632,36.377895 59.4480298,36.2211549 C59.3181006,36.0643176 59.0789086,35.9048583 58.7300709,35.7419029 C58.3715698,35.5745774 58.1399362,35.4600814 58.0350744,35.3990945 C57.9301169,35.3381076 57.8256378,35.2537165 57.7221155,35.1461155 C57.6182105,35.0384173 57.5382247,34.9174147 57.4814883,34.783399 C57.4247519,34.6493832 57.396623,34.5033255 57.3965273,34.3455171 C57.3965273,33.9266693 57.5452091,33.5998845 57.8423813,33.3652598 C58.1391708,33.1309265 58.5153721,33.0136142 58.9706024,33.0136142 C59.3029837,33.0136142 59.6329731,33.065084 59.9609532,33.1680236 L59.830163,33.6705827 L59.830163,33.6705827 Z" id="Fill-11" fill="#FFFFFF" sketch:type="MSShapeGroup"></path>
                <path d="M59.830163,33.6705827 C59.5327994,33.567643 59.2512225,33.5162703 58.9845712,33.5162703 C58.6828065,33.5162703 58.4370128,33.5862887 58.2470943,33.7261312 C58.0573671,33.8662651 57.9624557,34.0653465 57.9622644,34.3238609 C57.9624557,34.630252 58.2113111,34.8995459 58.7089263,35.1317428 C59.076708,35.3039239 59.3200142,35.423664 59.4390361,35.490769 C59.5581538,35.5576798 59.6790893,35.6497428 59.801747,35.7670551 C59.9241176,35.8845617 60.0226648,36.0225591 60.0970057,36.181727 C60.1713466,36.3407008 60.2083735,36.5199711 60.2083735,36.7184698 C60.2083735,37.2114147 60.0452445,37.593748 59.7186038,37.8652756 C59.3919631,38.1370945 59.0069596,38.2727612 58.5637845,38.2727612 C58.134674,38.2727612 57.7585684,38.1867192 57.4356591,38.0142467 L57.5558292,37.5080945 C57.9352835,37.6828976 58.266708,37.7702992 58.5497201,37.770105 C58.8797094,37.7702992 59.1443515,37.6834803 59.343742,37.5098425 C59.5428455,37.3364961 59.6423494,37.0976955 59.6423494,36.7936352 C59.6423494,36.5687218 59.5778632,36.377895 59.4480298,36.2211549 C59.3181006,36.0643176 59.0789086,35.9048583 58.7300709,35.7419029 C58.3715698,35.5745774 58.1399362,35.4600814 58.0350744,35.3990945 C57.9301169,35.3381076 57.8256378,35.2537165 57.7221155,35.1461155 C57.6182105,35.0384173 57.5382247,34.9174147 57.4814883,34.783399 C57.4247519,34.6493832 57.396623,34.5033255 57.3965273,34.3455171 C57.3965273,33.9266693 57.5452091,33.5998845 57.8423813,33.3652598 C58.1391708,33.1309265 58.5153721,33.0136142 58.9706024,33.0136142 C59.3029837,33.0136142 59.6329731,33.065084 59.9609532,33.1680236 L59.830163,33.6705827 L59.830163,33.6705827 Z" id="Stroke-12" stroke="#FFFFFF" stroke-width="0.5" sketch:type="MSShapeGroup"></path>
                <path d="M73.2458717,33.1104357 L72.6095252,38.1758425 L72.0718214,38.1758425 L71.2229766,35.3219869 L70.3774805,38.1758425 L69.8257123,38.1758425 L69.2032388,33.1104357 L69.7764387,33.1104357 L70.1974167,37.2282152 L70.9329802,34.7365906 L71.5129731,34.7365906 L72.2519809,37.2353045 L72.680039,33.1104357 L73.2458717,33.1104357 L73.2458717,33.1104357 Z" id="Fill-13" fill="#FFFFFF" sketch:type="MSShapeGroup"></path>
                <path d="M73.2458717,33.1104357 L72.6095252,38.1758425 L72.0718214,38.1758425 L71.2229766,35.3219869 L70.3774805,38.1758425 L69.8257123,38.1758425 L69.2032388,33.1104357 L69.7764387,33.1104357 L70.1974167,37.2282152 L70.9329802,34.7365906 L71.5129731,34.7365906 L72.2519809,37.2353045 L72.680039,33.1104357 L73.2458717,33.1104357 L73.2458717,33.1104357 Z" id="Stroke-14" stroke="#FFFFFF" stroke-width="0.5" sketch:type="MSShapeGroup"></path>
                <path d="M78.3587456,38.1758425 L75.7520305,38.1758425 L75.7520305,33.1104357 L78.3375053,33.1104357 L78.3375053,33.6237743 L76.3322147,33.6237743 L76.3322147,35.1926325 L78.2597201,35.1926325 L78.2597201,35.7060682 L76.3322147,35.7060682 L76.3322147,37.6625039 L78.3587456,37.6625039 L78.3587456,38.1758425 L78.3587456,38.1758425 Z" id="Fill-15" fill="#FFFFFF" sketch:type="MSShapeGroup"></path>
                <path d="M78.3587456,38.1758425 L75.7520305,38.1758425 L75.7520305,33.1104357 L78.3375053,33.1104357 L78.3375053,33.6237743 L76.3322147,33.6237743 L76.3322147,35.1926325 L78.2597201,35.1926325 L78.2597201,35.7060682 L76.3322147,35.7060682 L76.3322147,37.6625039 L78.3587456,37.6625039 L78.3587456,38.1758425 L78.3587456,38.1758425 Z" id="Stroke-16" stroke="#FFFFFF" stroke-width="0.5" sketch:type="MSShapeGroup"></path>
                <path d="M83.8781502,33.6705827 C83.580978,33.567643 83.2993055,33.5162703 83.0329412,33.5162703 C82.7310808,33.5162703 82.485287,33.5862887 82.2955599,33.7261312 C82.10545,33.8662651 82.01073,34.0653465 82.01073,34.3238609 C82.0105386,34.630252 82.2592984,34.8995459 82.7571049,35.1317428 C83.125078,35.3039239 83.3682884,35.423664 83.4875974,35.490769 C83.6066194,35.5575827 83.7271722,35.6497428 83.8498299,35.7670551 C83.9725833,35.8845617 84.0710347,36.0225591 84.1451843,36.1815328 C84.2195252,36.340895 84.2567434,36.5199711 84.2567434,36.7184698 C84.2567434,37.2114147 84.0933274,37.593748 83.7668781,37.8652756 C83.4401417,38.1370945 83.0553296,38.2727612 82.6118675,38.2727612 C82.1826612,38.2727612 81.8066513,38.1867192 81.4838377,38.0142467 L81.6041035,37.5080945 C81.9835578,37.6828976 82.3147909,37.7702992 82.5978987,37.7702992 C82.927888,37.7702992 83.1926258,37.6834803 83.3917293,37.5098425 C83.5911198,37.3364961 83.690815,37.0976955 83.690815,36.7936352 C83.690815,36.5688189 83.6257548,36.377895 83.4962084,36.2211549 C83.3666619,36.0645118 83.1272785,35.9048583 82.7784408,35.7419029 C82.4199398,35.5745774 82.1883062,35.4600814 82.083253,35.3990945 C81.9782955,35.3381076 81.8741035,35.2537165 81.7701028,35.1461155 C81.6664848,35.0384173 81.5864033,34.9174147 81.5295712,34.783399 C81.4729305,34.6493832 81.4448972,34.5033255 81.4447059,34.3455171 C81.4448972,33.9266693 81.5933877,33.6000787 81.8903685,33.3652598 C82.1875408,33.1309265 82.563455,33.0136142 83.0188767,33.0136142 C83.3513536,33.0136142 83.6809603,33.0651811 84.0091318,33.1680236 L83.8781502,33.6705827 L83.8781502,33.6705827 Z" id="Fill-17" fill="#FFFFFF" sketch:type="MSShapeGroup"></path>
                <path d="M83.8781502,33.6705827 C83.580978,33.567643 83.2993055,33.5162703 83.0329412,33.5162703 C82.7310808,33.5162703 82.485287,33.5862887 82.2955599,33.7261312 C82.10545,33.8662651 82.01073,34.0653465 82.01073,34.3238609 C82.0105386,34.630252 82.2592984,34.8995459 82.7571049,35.1317428 C83.125078,35.3039239 83.3682884,35.423664 83.4875974,35.490769 C83.6066194,35.5575827 83.7271722,35.6497428 83.8498299,35.7670551 C83.9725833,35.8845617 84.0710347,36.0225591 84.1451843,36.1815328 C84.2195252,36.340895 84.2567434,36.5199711 84.2567434,36.7184698 C84.2567434,37.2114147 84.0933274,37.593748 83.7668781,37.8652756 C83.4401417,38.1370945 83.0553296,38.2727612 82.6118675,38.2727612 C82.1826612,38.2727612 81.8066513,38.1867192 81.4838377,38.0142467 L81.6041035,37.5080945 C81.9835578,37.6828976 82.3147909,37.7702992 82.5978987,37.7702992 C82.927888,37.7702992 83.1926258,37.6834803 83.3917293,37.5098425 C83.5911198,37.3364961 83.690815,37.0976955 83.690815,36.7936352 C83.690815,36.5688189 83.6257548,36.377895 83.4962084,36.2211549 C83.3666619,36.0645118 83.1272785,35.9048583 82.7784408,35.7419029 C82.4199398,35.5745774 82.1883062,35.4600814 82.083253,35.3990945 C81.9782955,35.3381076 81.8741035,35.2537165 81.7701028,35.1461155 C81.6664848,35.0384173 81.5864033,34.9174147 81.5295712,34.783399 C81.4729305,34.6493832 81.4448972,34.5033255 81.4447059,34.3455171 C81.4448972,33.9266693 81.5933877,33.6000787 81.8903685,33.3652598 C82.1875408,33.1309265 82.563455,33.0136142 83.0188767,33.0136142 C83.3513536,33.0136142 83.6809603,33.0651811 84.0091318,33.1680236 L83.8781502,33.6705827 L83.8781502,33.6705827 Z" id="Stroke-18" stroke="#FFFFFF" stroke-width="0.5" sketch:type="MSShapeGroup"></path>
                <path d="M90.4446421,33.5879396 L88.9059674,33.5879396 L88.9059674,38.1758425 L88.3297059,38.1758425 L88.3297059,33.5879396 L86.7840468,33.5879396 L86.7840468,33.1104357 L90.4446421,33.1104357 L90.4446421,33.5879396 L90.4446421,33.5879396 Z" id="Fill-19" fill="#FFFFFF" sketch:type="MSShapeGroup"></path>
                <path d="M90.4446421,33.5879396 L88.9059674,33.5879396 L88.9059674,38.1758425 L88.3297059,38.1758425 L88.3297059,33.5879396 L86.7840468,33.5879396 L86.7840468,33.1104357 L90.4446421,33.1104357 L90.4446421,33.5879396 L90.4446421,33.5879396 Z" id="Stroke-20" stroke="#FFFFFF" stroke-width="0.5" sketch:type="MSShapeGroup"></path>
                <path d="M94.3971474,33.0136142 C94.9559957,33.0136142 95.3823317,33.238042 95.6757725,33.6867034 C95.969309,34.1355591 96.1163643,34.7882546 96.1163643,35.6449843 C96.1163643,36.4968583 95.9699787,37.1479029 95.677686,37.598021 C95.3851063,38.0476535 94.9583877,38.2727612 94.3973388,38.2727612 C93.8408824,38.2727612 93.4158859,38.0485276 93.1224451,37.599769 C92.8287172,37.1510105 92.6818533,36.4993832 92.6818533,35.6449843 C92.6818533,34.7906824 92.8282388,34.1385696 93.1204359,33.6886457 C93.4128242,33.2387218 93.8383948,33.0136142 94.3971474,33.0136142 L94.3971474,33.0136142 Z M94.3973388,37.7558294 C95.1328065,37.7558294 95.5007796,37.0523438 95.5007796,35.6449843 C95.5007796,34.2353911 95.1328065,33.5304488 94.3973388,33.5304488 C94.0389334,33.5304488 93.765776,33.7129239 93.5784408,34.0779711 C93.3910099,34.4430184 93.2972466,34.9653885 93.2972466,35.6449843 C93.2972466,36.3318635 93.3904359,36.8553018 93.5768143,37.2156877 C93.7630971,37.5758793 94.0366371,37.7558294 94.3973388,37.7558294 L94.3973388,37.7558294 Z" id="Fill-21" fill="#FFFFFF" sketch:type="MSShapeGroup"></path>
                <path d="M94.3971474,33.0136142 C94.9559957,33.0136142 95.3823317,33.238042 95.6757725,33.6867034 C95.969309,34.1355591 96.1163643,34.7882546 96.1163643,35.6449843 C96.1163643,36.4968583 95.9699787,37.1479029 95.677686,37.598021 C95.3851063,38.0476535 94.9583877,38.2727612 94.3973388,38.2727612 C93.8408824,38.2727612 93.4158859,38.0485276 93.1224451,37.599769 C92.8287172,37.1510105 92.6818533,36.4993832 92.6818533,35.6449843 C92.6818533,34.7906824 92.8282388,34.1385696 93.1204359,33.6886457 C93.4128242,33.2387218 93.8383948,33.0136142 94.3971474,33.0136142 L94.3971474,33.0136142 Z M94.3973388,37.7558294 C95.1328065,37.7558294 95.5007796,37.0523438 95.5007796,35.6449843 C95.5007796,34.2353911 95.1328065,33.5304488 94.3973388,33.5304488 C94.0389334,33.5304488 93.765776,33.7129239 93.5784408,34.0779711 C93.3910099,34.4430184 93.2972466,34.9653885 93.2972466,35.6449843 C93.2972466,36.3318635 93.3904359,36.8553018 93.5768143,37.2156877 C93.7630971,37.5758793 94.0366371,37.7558294 94.3973388,37.7558294 L94.3973388,37.7558294 Z" id="Stroke-22" stroke="#FFFFFF" stroke-width="0.5" sketch:type="MSShapeGroup"></path>
                <path d="M101.706474,38.1758425 L101.06276,38.1758425 L99.2731254,34.1767349 L99.2731254,38.1758425 L98.6930369,38.1758425 L98.6930369,33.1104357 L99.3401949,33.1104357 L101.13691,37.0739029 L101.137101,33.1104357 L101.706474,33.1104357 L101.706474,38.1758425 L101.706474,38.1758425 Z" id="Fill-23" fill="#FFFFFF" sketch:type="MSShapeGroup"></path>
                <path d="M101.706474,38.1758425 L101.06276,38.1758425 L99.2731254,34.1767349 L99.2731254,38.1758425 L98.6930369,38.1758425 L98.6930369,33.1104357 L99.3401949,33.1104357 L101.13691,37.0739029 L101.137101,33.1104357 L101.706474,33.1104357 L101.706474,38.1758425 L101.706474,38.1758425 Z" id="Stroke-24" stroke="#FFFFFF" stroke-width="0.5" sketch:type="MSShapeGroup"></path>
            </g>
        </g>
    </g>
</svg>